<?xml version="1.0" ?><!DOCTYPE svg  PUBLIC '-//W3C//DTD SVG 1.1//EN'  'http://www.w3.org/Graphics/SVG/1.1/DTD/svg11.dtd'><svg height="512px" style="enable-background:new 0 0 512 512;" version="1.1" viewBox="0 0 512 512" width="512px" xml:space="preserve" xmlns="http://www.w3.org/2000/svg" xmlns:xlink="http://www.w3.org/1999/xlink"><g id="_x31_29-fiverr"><g><g><path d="M413.696,399.751V169.75H184.32v-14.375c0-23.779,19.295-43.124,43.004-43.124h43.008v-86.25     h-43.008c-71.134,0-129.019,58.044-129.019,129.374v14.375H40.962V256h57.342v143.751H40.962v86.248h200.705v-86.248H184.32V256     h144.157v143.751h-58.145v86.248h200.705v-86.248H413.696z" style="fill:#1DBF73;"/><path d="M370.685,112.251c23.751,0,43.012-19.306,43.012-43.125c0-23.821-19.261-43.125-43.012-43.124     c-23.749,0-43.005,19.303-43.005,43.124C327.68,92.945,346.936,112.251,370.685,112.251z" style="fill:#1DBF73;"/></g></g></g><g id="Layer_1"/></svg>